<svg width="45" height="45" viewBox="0 0 45 45" fill="none" xmlns="http://www.w3.org/2000/svg">
<path fill-rule="evenodd" clip-rule="evenodd" d="M11.6999 7.41592C9.33389 7.41592 7.41589 9.33392 7.41589 11.6999V40.7161C7.41589 43.082 9.33389 45 11.6999 45H40.716C43.082 45 45 43.082 45 40.7161V11.6999C45 9.33392 43.082 7.41592 40.716 7.41592H11.6999ZM10.5323 20.0925C9.82257 19.3827 9.82257 18.2321 10.5323 17.5224L17.5224 10.5323C18.2321 9.82257 19.3828 9.82257 20.0925 10.5323L27.0826 17.5224C27.7923 18.2321 27.7923 19.3828 27.0826 20.0925L20.0925 27.0826C19.3827 27.7923 18.2321 27.7923 17.5224 27.0826L10.5323 20.0925ZM14.5543 19.2345C14.3184 18.9986 14.3184 18.6163 14.5543 18.3804L18.3813 14.5534C18.6171 14.3176 18.9995 14.3176 19.2353 14.5534L23.0623 18.3804C23.2982 18.6163 23.2982 18.9986 23.0623 19.2345L19.2353 23.0615C18.9995 23.2973 18.6171 23.2973 18.3813 23.0615L14.5543 19.2345Z" fill="#84949E"/>
<path fill-rule="evenodd" clip-rule="evenodd" d="M4.30864 0C1.92904 0 0 1.92905 0 4.30864V33.2755C0 35.6551 1.92905 37.5841 4.30864 37.5841H33.2755C35.6551 37.5841 37.5841 35.6551 37.5841 33.2755V4.30864C37.5841 1.92904 35.6551 0 33.2755 0H4.30864ZM10.5323 20.0925C9.82257 19.3827 9.82257 18.2321 10.5323 17.5224L17.5224 10.5323C18.2321 9.82257 19.3828 9.82257 20.0925 10.5323L27.0826 17.5224C27.7923 18.2321 27.7923 19.3828 27.0826 20.0925L20.0925 27.0826C19.3827 27.7923 18.2321 27.7923 17.5224 27.0826L10.5323 20.0925ZM14.5543 19.2345C14.3184 18.9986 14.3184 18.6163 14.5543 18.3804L18.3813 14.5534C18.6171 14.3176 18.9995 14.3176 19.2353 14.5534L23.0623 18.3804C23.2982 18.6163 23.2982 18.9986 23.0623 19.2345L19.2353 23.0615C18.9995 23.2973 18.6171 23.2973 18.3813 23.0615L14.5543 19.2345Z" fill="#A4B2BB"/>
</svg>
