<svg width="48" height="48" viewBox="0 0 48 48" fill="none" xmlns="http://www.w3.org/2000/svg">
<path fill-rule="evenodd" clip-rule="evenodd" d="M24 0L0 24L24 48L48 24L24 0ZM23.9584 11.2941L11.2525 24L23.9584 36.7059L36.6643 24L23.9584 11.2941Z" fill="white"/>
<circle cx="33.1349" cy="33.1765" r="8.98441" transform="rotate(45 33.1349 33.1765)" fill="#4FB8FF"/>
<path fill-rule="evenodd" clip-rule="evenodd" d="M27.7881 32.8762L28.426 32.2383C28.7231 31.9412 29.2167 31.9532 29.5286 32.2651C29.8182 32.5547 29.8492 33.0011 29.6143 33.3012L29.5554 33.3677L28.9175 34.0056C28.0263 34.8968 28.0623 36.3778 28.9979 37.3135C29.9001 38.2157 31.3094 38.2814 32.2081 37.4858L32.3058 37.3938L32.9436 36.756C33.2407 36.4589 33.7344 36.4709 34.0463 36.7828C34.3359 37.0724 34.3669 37.5187 34.132 37.8189L34.073 37.8854L33.4352 38.5232C31.9498 40.0087 29.4815 39.9487 27.9221 38.3893C26.4037 36.8709 26.3069 34.4909 27.6741 32.9955L27.7881 32.8762ZM32.2913 28.373C33.7767 26.8876 36.245 26.9475 37.8044 28.5069C39.3638 30.0663 39.4238 32.5346 37.9384 34.0201L37.3005 34.6579C37.0034 34.955 36.5098 34.943 36.1979 34.6311C35.886 34.3192 35.874 33.8256 36.1711 33.5285L36.809 32.8906C37.7002 31.9994 37.6642 30.5184 36.7286 29.5828C35.793 28.6471 34.312 28.6112 33.4207 29.5024L32.7829 30.1403C32.4858 30.4373 31.9921 30.4254 31.6802 30.1135C31.3684 29.8016 31.3564 29.3079 31.6535 29.0108L32.2913 28.373ZM33.1554 32.0265C33.4525 31.7295 33.9461 31.7414 34.258 32.0533C34.5699 32.3652 34.5819 32.8589 34.2848 33.1559L32.5711 34.8696C32.274 35.1667 31.7804 35.1547 31.4685 34.8428C31.1566 34.531 31.1446 34.0373 31.4417 33.7402L33.1554 32.0265Z" fill="white"/>
</svg>
