<svg width="21" height="20" viewBox="0 0 21 20" fill="none" xmlns="http://www.w3.org/2000/svg">
<path d="M18.8737 11.7709H12.5045V18.1425C12.5045 19.1684 11.6731 20 10.6476 20C9.62209 20 8.79074 19.1684 8.79074 18.1425V11.7709H2.42149C1.4649 11.6718 0.737976 10.8654 0.737976 9.90333C0.737976 8.94127 1.4649 8.13488 2.42149 8.03579H8.77077V1.68416C8.86983 0.727226 9.67593 3.05176e-05 10.6376 3.05176e-05C11.5993 3.05176e-05 12.4054 0.727226 12.5045 1.68416V8.03579H18.8737C19.8303 8.13488 20.5572 8.94127 20.5572 9.90333C20.5572 10.8654 19.8303 11.6718 18.8737 11.7709Z" fill="#4FB8FF"/>
</svg>
