<svg width="45" height="46" viewBox="0 0 45 46" fill="none" xmlns="http://www.w3.org/2000/svg">
<path d="M43.7296 1.32581C42.6041 0.154289 40.9385 -0.279013 39.3853 0.179508L3.16799 10.8378C1.52932 11.3009 0.367846 12.6238 0.0549679 14.302C-0.264663 16.0122 0.851794 18.1856 2.31039 19.0935L13.6348 26.1364C14.7963 26.8608 16.2954 26.6797 17.2565 25.6985L30.2241 12.4908C30.8768 11.8007 31.9573 11.8007 32.61 12.4908C33.2628 13.1534 33.2628 14.2332 32.61 14.921L19.62 28.1287C18.6566 29.1099 18.4765 30.6322 19.1856 31.8175L26.1049 43.3951C26.9152 44.7684 28.3108 45.5502 29.8414 45.5502C30.0215 45.5502 30.2241 45.5502 30.4041 45.5249C32.1599 45.298 33.5554 44.0806 34.0731 42.3612L44.81 5.75054C45.2827 4.19157 44.8551 2.49504 43.7296 1.32581Z" fill="#A4B2BB"/>
</svg>
